<?xml version="1.0" encoding="UTF-8"?>
<svg width="24px" height="24px" viewBox="0 0 24 24" version="1.1" xmlns="http://www.w3.org/2000/svg" xmlns:xlink="http://www.w3.org/1999/xlink">
    <!-- Generator: Sketch 51.2 (57519) - http://www.bohemiancoding.com/sketch -->
    <title>Slice 1</title>
    <desc>Created with Sketch.</desc>
    <defs></defs>
    <g id="Page-1" stroke="none" stroke-width="1" fill="none" fill-rule="evenodd" fill-opacity="0.64">
        <g id="Icon/Email" fill="#26292C" fill-rule="nonzero">
            <path d="M19,8.3345523 L12.6823183,14.2310553 C12.2981115,14.5896482 11.7018885,14.5896482 11.3176817,14.2310553 L5,8.3345523 L5,11.7911322 C5,12.343417 4.55228475,12.7911322 4,12.7911322 C3.44771525,12.7911322 3,12.343417 3,11.7911322 L3,7 C3,5.8954305 3.8954305,5 5,5 L19,5 C20.1045695,5 21,5.8954305 21,7 L21,17 C21,18.1045695 20.1045695,19 19,19 L5,19 C3.8954305,19 3,18.1045695 3,17 L3,15.8285581 C3,15.2762733 3.44771525,14.8285581 4,14.8285581 C4.55228475,14.8285581 5,15.2762733 5,15.8285581 L5,17 L19,17 L19,8.3345523 Z M17.498694,7 L6.50130604,7 L12,12.1321144 L17.498694,7 Z" id="Combined-Shape"></path>
        </g>
    </g>
</svg>