<svg width="24" height="24" viewBox="0 0 24 24" fill="none" xmlns="http://www.w3.org/2000/svg">
<path fill-rule="evenodd" clip-rule="evenodd" d="M19.68 12.1823C19.68 14.6179 18.8071 16.6695 17.2942 18.0623H14.7093V16.0543C15.5564 15.4872 16.12 14.6401 16.3058 13.6401H12V10.5459H19.5342C19.6293 11.0695 19.68 11.6143 19.68 12.1823Z" fill="#318AF5"/>
<path fill-rule="evenodd" clip-rule="evenodd" d="M11.9999 20C8.87281 20 6.16703 18.2071 4.85059 15.5929V13.52H7.52347C8.15281 15.4107 9.91636 16.8178 11.9999 16.8178C13.0764 16.8178 13.9928 16.5342 14.7093 16.0542L17.2941 18.0622C15.9706 19.2836 14.1599 20 11.9999 20Z" fill="#3DA751"/>
<path fill-rule="evenodd" clip-rule="evenodd" d="M7.52355 13.5201L4.85067 15.593C4.30933 14.513 4 13.2908 4 12.0001C4 10.7094 4.30933 9.48723 4.85067 8.40723H7.52355V10.4801C7.36355 10.9601 7.27289 11.473 7.27289 12.0001C7.27289 12.5272 7.36355 13.0401 7.52355 13.5201Z" fill="#FDB900"/>
<path fill-rule="evenodd" clip-rule="evenodd" d="M11.9999 7.18222C9.91636 7.18222 8.15281 8.58933 7.52347 10.48L4.85059 8.40711C6.16703 5.79289 8.87281 4 11.9999 4C14.1564 4 15.967 4.79289 17.3528 6.08356L15.0577 8.37778C14.2293 7.58578 13.1741 7.18222 11.9999 7.18222Z" fill="#EA3E36"/>
</svg>
