<svg width="24" height="24" viewBox="0 0 24 24" fill="none" xmlns="http://www.w3.org/2000/svg">
<path d="M9.8601 16.59C9.2601 17.17 8.2601 17.17 7.6601 16.59C7.51554 16.457 7.40015 16.2955 7.32122 16.1156C7.24229 15.9357 7.20154 15.7414 7.20154 15.545C7.20154 15.3486 7.24229 15.1543 7.32122 14.9744C7.40015 14.7945 7.51554 14.633 7.6601 14.5C7.95725 14.2187 8.3509 14.0619 8.7601 14.0619C9.16929 14.0619 9.56294 14.2187 9.8601 14.5C10.4701 15.08 10.4701 16.01 9.8601 16.59ZM13.9101 13.45L16.1101 11.36L14.6401 9.97L16.1101 8.57L17.5901 9.97L19.0601 8.57L17.5901 7.18L19.0601 5.78L20.5301 7.18L22.0001 5.78L19.0601 3L10.9601 10.67L10.2301 9.97C9.83054 9.59888 9.30541 9.39262 8.7601 9.39262C8.21478 9.39262 7.68965 9.59888 7.2901 9.97L3.6001 13.45C3.40611 13.628 3.25123 13.8443 3.14528 14.0853C3.03933 14.3263 2.98462 14.5867 2.98462 14.85C2.98462 15.1133 3.03933 15.3737 3.14528 15.6147C3.25123 15.8557 3.40611 16.072 3.6001 16.25L8.0101 20.42C8.8301 21.19 10.1401 21.19 10.9501 20.42L14.6301 16.94C14.8225 16.7621 14.976 16.5463 15.081 16.3063C15.186 16.0662 15.2401 15.807 15.2401 15.545C15.2401 15.283 15.186 15.0238 15.081 14.7837C14.976 14.5437 14.8225 14.3279 14.6301 14.15L13.9001 13.45H13.9101Z" fill="#747678"/>
</svg>
