<svg width="24" height="24" viewBox="0 0 24 24" fill="none" xmlns="http://www.w3.org/2000/svg">
<path fill-rule="evenodd" clip-rule="evenodd" d="M21 1.5H3C2.19537 1.5 1.5 2.17783 1.5 3V21C1.5 21.821 2.19537 22.5 3 22.5H21C21.8035 22.5 22.5 21.821 22.5 21V3C22.5 2.17783 21.8035 1.5 21 1.5Z" fill="#006997"/>
<path fill-rule="evenodd" clip-rule="evenodd" d="M7.90251 6.13595C7.90251 7.14052 7.10023 7.95593 6.11156 7.95593C5.11942 7.95593 4.31714 7.14052 4.31714 6.13595C4.31714 5.13255 5.11942 4.31714 6.11156 4.31714C7.10023 4.31714 7.90251 5.13255 7.90251 6.13595ZM4.56257 19.4269H7.65708V9.33414H4.56257V19.4269Z" fill="#FEFEFE"/>
<path fill-rule="evenodd" clip-rule="evenodd" d="M9.69507 9.33401H12.6868V10.7969H12.7289C13.1463 10.0114 14.1634 9.18286 15.6821 9.18286C18.8434 9.18286 19.4268 11.2519 19.4268 13.9447V19.4268H16.3064V14.5649C16.3064 13.4059 16.2865 11.9152 14.6849 11.9152C13.0609 11.9152 12.8119 13.179 12.8119 14.4823V19.4268H9.69507V9.33401Z" fill="#FEFEFE"/>
</svg>
