<?xml version="1.0" encoding="UTF-8"?>
<svg width="24px" height="24px" viewBox="0 0 24 24" version="1.1" xmlns="http://www.w3.org/2000/svg" xmlns:xlink="http://www.w3.org/1999/xlink">
    <!-- Generator: Sketch 51.2 (57519) - http://www.bohemiancoding.com/sketch -->
    <title>Slice 1</title>
    <desc>Created with Sketch.</desc>
    <defs></defs>
    <g id="Page-1" stroke="none" stroke-width="1" fill="none" fill-rule="evenodd" fill-opacity="0.64">
        <g id="Icon/Lock" fill="#26292C" fill-rule="nonzero">
            <path d="M7,9 L7,8 C7,5.23857625 9.23857625,3 12,3 C14.7614237,3 17,5.23857625 17,8 L17,9 L18,9 C19.1045695,9 20,9.8954305 20,11 L20,19 C20,20.1045695 19.1045695,21 18,21 L6,21 C4.8954305,21 4,20.1045695 4,19 L4,18.1654002 C4,17.6131154 4.44771525,17.1654002 5,17.1654002 C5.55228475,17.1654002 6,17.6131154 6,18.1654002 L6,19 L18,19 L18,11 L6,11 L6,14.1912655 C6,14.7435503 5.55228475,15.1912655 5,15.1912655 C4.44771525,15.1912655 4,14.7435503 4,14.1912655 L4,11 C4,9.8954305 4.8954305,9 6,9 L7,9 Z M9,9 L15,9 L15,8 C15,6.34314575 13.6568542,5 12,5 C10.3431458,5 9,6.34314575 9,8 L9,9 Z M12,17 C10.8954305,17 10,16.1045695 10,15 C10,13.8954305 10.8954305,13 12,13 C13.1045695,13 14,13.8954305 14,15 C14,16.1045695 13.1045695,17 12,17 Z" id="Combined-Shape"></path>
        </g>
    </g>
</svg>