<?xml version="1.0" encoding="UTF-8"?>
<svg width="160" height="40" viewBox="0 0 808 183" version="1.1" xmlns="http://www.w3.org/2000/svg" xmlns:xlink="http://www.w3.org/1999/xlink">
    <!-- Generator: Sketch 42 (36781) - http://www.bohemiancoding.com/sketch -->
    <title>logo-dark-for-screen-no-margins</title>
    <desc>Created with Sketch.</desc>
    <defs></defs>
    <g id="Page-1" stroke="none" stroke-width="1" fill="none" fill-rule="evenodd">
        <g id="logo-dark-for-screen-no-margins" fill-rule="nonzero" fill="#26292C">
            <g id="Page-1">
                <g id="logo-dark-for-screen">
                    <g id="Group">
                        <path d="M68.8,37 C52.6,37 43.3,44.2 38.8,49.3 C38.3,45 35.4,39.4 24.3,39.4 L0.2,39.4 L0.2,64.6 L10.1,64.6 C11.8,64.6 12.3,65.1 12.3,66.8 L12.3,182.1 L41,182.1 L41,138.8 C41,137.6 41,136.5 40.9,135.6 C45.4,139.7 54,145.4 67.4,145.4 C95.5,145.4 115.1,123.1 115.1,91.2 C115.2,58.8 96.5,37 68.8,37 Z M62.9,120.3 C47.4,120.3 40.4,105.5 40.4,91.7 C40.4,70.1 52.2,62.4 63.3,62.4 C76.9,62.4 86,74.1 86,91.5 C86,111.4 74.4,120.3 62.9,120.3 Z" id="Shape"></path>
                        <path d="M153.8,115.8 L153.8,54.7 C153.8,44.4 148.8,39.4 138.6,39.4 L112.9,39.4 L112.9,64.6 L122.8,64.6 C124.5,64.6 125,65.1 125,66.8 L125,127.7 C125,138.2 129.8,143 140.1,143 L165.8,143 L165.8,118 L156,118 C154.4,118 153.8,117.3 153.8,115.8 Z" id="Shape"></path>
                        <path d="M228.9,37 C212.7,37 203.4,44.2 198.9,49.3 C198.4,45 195.5,39.4 184.4,39.4 L160.3,39.4 L160.3,64.6 L170.2,64.6 C171.9,64.6 172.4,65.1 172.4,66.8 L172.4,182.1 L201.2,182.1 L201.2,138.8 C201.2,137.6 201.2,136.5 201.1,135.6 C205.6,139.7 214.2,145.4 227.6,145.4 C255.7,145.4 275.3,123.1 275.3,91.2 C275.3,58.8 256.6,37 228.9,37 Z M223,120.3 C207.6,120.3 200.5,105.5 200.5,91.7 C200.5,70.1 212.3,62.4 223.4,62.4 C237,62.4 246.1,74.1 246.1,91.5 C246.1,111.4 234.5,120.3 223,120.3 Z" id="Shape"></path>
                        <path d="M329.4,37 C298.4,37 276.8,59.3 276.8,91.2 C276.8,122.6 300.2,145.4 332.4,145.4 C357.7,145.4 373.2,130.4 373.9,129.8 L375.1,128.7 L362.6,107.9 L360.7,109.7 C360.6,109.8 349.2,120.3 334.2,120.3 C319.8,120.3 309.2,111.5 306.8,97.7 L375,97.7 L375.2,95.8 C375.2,95.5 375.8,89.4 375.8,86.4 C375.6,56.8 357,37 329.4,37 Z M307.7,76.2 C310.8,66 318.6,60.3 329.4,60.3 C338.1,60.3 344.7,66.9 345.9,76.2 L307.7,76.2 Z" id="Shape"></path>
                        <path d="M480.1,115.8 L480.1,15.7 C480.1,5.4 475.1,0.4 464.7,0.4 L439,0.4 L439,25.6 L448.9,25.6 C450.6,25.6 451.1,26.1 451.1,27.8 L451.1,45.9 C446.9,42.1 438.6,37 424.3,37 C396.4,37 376.9,59.3 376.9,91.2 C376.9,123.6 395.6,145.4 423.3,145.4 C439.2,145.4 448.3,138 452.8,132.9 C453.4,137.4 456.3,143 467,143 L492,143 L492,118 L482.3,118 C480.7,118 480.1,117.3 480.1,115.8 Z M428.9,120.3 C415.2,120.3 406.4,108.9 406.4,91.2 C406.4,74 415.6,62.5 429.3,62.5 C444.8,62.5 451.8,76.8 451.8,91.1 C451.8,112.6 439.9,120.3 428.9,120.3 Z" id="Shape"></path>
                        <path d="M556,38 C544,38 533,44.9 526.5,55.9 L526.5,53.5 C526.5,44.1 521.3,39.3 511.1,39.3 L486.4,39.3 L486.4,64.5 L496.3,64.5 C498,64.5 498.5,65 498.5,66.7 L498.5,143 L527.2,143 L527.2,101.5 C527.2,96 527.9,90.8 529.3,85.9 C533.6,71.6 545.1,66.5 554.4,66.5 C557.7,66.5 560.1,66.8 560.1,66.9 L562.5,67.3 L562.5,38.7 L560.7,38.4 C560.7,38.4 558.3,38 556,38 Z" id="Shape"></path>
                        <path d="M603.5,115.8 L603.5,54.7 C603.5,44.4 598.6,39.4 588.3,39.4 L565.1,39.4 L565.1,64.6 L572.5,64.6 C574.2,64.6 574.7,65.1 574.7,66.8 L574.7,127.7 C574.7,138.2 579.5,143 589.9,143 L615.6,143 L615.6,118 L605.7,118 C604.1,118 603.5,117.3 603.5,115.8 Z" id="Shape"></path>
                        <path d="M712,39.3 L696.7,39.3 C687.7,39.3 682.9,42.4 680.1,50 L661.4,102.3 C660.8,104.2 660.1,106.4 659.6,108.5 C659.1,106.4 658.4,104.2 657.7,102.3 L639,50 C636.1,42.3 631.5,39.3 622.4,39.3 L606,39.3 L606,64.5 L610.2,64.5 C612.4,64.5 613.2,65.3 613.7,66.7 L642.7,143 L675,143 L704,66.7 C704.5,65.3 705.3,64.5 707.5,64.5 L711.9,64.5 L711.9,39.3 L712,39.3 Z" id="Shape"></path>
                        <path d="M761.5,37 C730.5,37 708.9,59.3 708.9,91.2 C708.9,122.6 732.2,145.4 764.5,145.4 C789.8,145.4 805.3,130.4 806,129.8 L807.2,128.7 L794.7,107.9 L792.8,109.7 C792.7,109.8 781.3,120.3 766.3,120.3 C751.9,120.3 741.3,111.5 738.8,97.7 L807,97.7 L807.2,95.8 C807.2,95.5 807.8,89.4 807.8,86.4 C807.7,56.8 789.1,37 761.5,37 Z M739.8,76.2 C742.9,66 750.7,60.3 761.5,60.3 C770.2,60.3 776.8,66.9 778,76.2 L739.8,76.2 Z" id="Shape"></path>
                        <rect id="Rectangle-path" x="126.2" y="0.3" width="25.6" height="27"></rect>
                        <rect id="Rectangle-path" x="575.9" y="0.3" width="25.6" height="27"></rect>
                    </g>
                </g>
            </g>
        </g>
    </g>
</svg>
