<svg xmlns="http://www.w3.org/2000/svg" overflow="visible" width="310.001" height="298.999" viewBox="0 0 232.5 224.249" fill-rule="evenodd" stroke-width=".501" stroke-linejoin="bevel"><g font-size="16" font-family="Times New Roman"><path d="M20.264 28.319c-.955-.22-1.911-.433-2.867-.641 21.7-26.384 57.977-35.906 85.897-19.766a277.6 277.6 0 01-6.591 14.43 299.889 299.889 0 01-9.351 17.518c-5.004-1.577-10.696-.383-14.66 3.58a14.587 14.587 0 00-1.478 1.728c-16.433-7.155-33.471-12.83-50.95-16.85z" fill="#c45fdb"/><path d="M96.905 57.848c1.458-4.942.238-10.51-3.66-14.407a14.88 14.88 0 00-1.198-1.074 251.35 251.35 0 0014.497-32.433 62.529 62.529 0 019.707 8.022c19.778-19.961 47.414-22.347 70.933-11.754a261.652 261.652 0 00-20.915 19.504 259.776 259.776 0 00-33.761 43.61c-4.58-1.858-9.92-1.286-14.033 1.717a299.814 299.814 0 00-21.57-13.185z" fill="#881d87"/><path d="M5.276 47.824a80.884 80.884 0 0111.32-19.155 298.536 298.536 0 0113.513 4.197c8.778 2.95 17.385 6.326 25.876 10.018a323.295 323.295 0 0113.229 6.132c-1.66 4.87-.662 10.449 2.99 14.469-16.13 22.764-35.293 43.258-56.67 61.136C-.558 96.984-4.447 71.03 5.277 47.824z" fill="#a14fba"/><path d="M215.52 126.61a224.764 224.764 0 00-25.05-2.02 14.48 14.48 0 00-4.224-9.335c-4.84-4.84-12.253-5.55-17.848-2.132a295.383 295.383 0 00-27.628-25.591c1.755-5.091.6-10.965-3.46-15.027-.065-.064-.131-.13-.197-.192a292.615 292.615 0 013.878-6.447 289.167 289.167 0 0120.858-29.45A278.53 278.53 0 01189.187 7.14c16.17 7.873 30.189 21.948 38.04 40.684 9.959 23.773 5.635 50.429-11.46 78.822l-.247-.035z" fill="#b14d7d"/><path d="M112.746 132.69a14.633 14.633 0 00-2.164-1.783c3.905-11.534 8.425-22.857 13.58-33.877 4.607.923 9.577-.4 13.148-3.971.124-.124.246-.251.366-.38a371.07 371.07 0 019.346 7.785 354.4 354.4 0 0117.492 16.12 14.505 14.505 0 00-3.074 9.265c-1.393.156-2.786.326-4.177.51a217.354 217.354 0 00-26.838 5.3 229.466 229.466 0 00-15.088 4.547 14.564 14.564 0 00-2.591-3.515z" fill="#84419f"/><path d="M187.41 135.283l-.317-.397a14.433 14.433 0 002.747-5.01h-.01l1.282-.03a262.502 262.502 0 0122.187.773c-4.24 6.623-9.163 13.336-14.75 20.126a282.481 282.481 0 00-11.138-15.462z" fill="#881d87"/><path d="M17.673 128.187a297.969 297.969 0 006.48-5.02 271.542 271.542 0 0015.977-13.761 277.87 277.87 0 005.97-5.722 282.291 282.291 0 007.239-7.442c4.405-4.69 8.615-9.568 12.659-14.572a258.064 258.064 0 0010.999-14.698c5.348 2.407 11.857 1.415 16.249-2.977.426-.426.82-.873 1.184-1.338a358.257 358.257 0 0117.213 10.867c.949.637 1.895 1.278 2.839 1.924-3.256 5.567-2.498 12.84 2.274 17.61.61.612 1.26 1.156 1.944 1.636a285.95 285.95 0 00-8.107 18.763 279.361 279.361 0 00-5.436 15.229c-4.556-.853-9.443.483-12.965 4.005-3.898 3.898-5.118 9.463-3.66 14.405-13.267 6.292-26.02 13.682-38.244 21.797-13.527-13.862-24.45-27.471-32.615-40.706z" fill="#b14d7d"/><path d="M51.484 170.112c12.573-7.123 25.552-13.552 38.896-19.071.52.778 1.124 1.517 1.812 2.204a14.462 14.462 0 005.329 3.392 328.329 328.329 0 00-2.442 12.109 308.331 308.331 0 00-2.142 13.41 335.782 335.782 0 00-2.347 22.779c-14.753-11.738-27.816-23.367-39.106-34.823z" fill="#881d87"/><path d="M93.725 207.41a372.755 372.755 0 012.155-16.154 369.852 369.852 0 016.863-33.758 14.487 14.487 0 0010.003-4.253 14.506 14.506 0 004.177-11.775 275.4 275.4 0 0116.056-4.412 258.368 258.368 0 0129.807-5.398 14.474 14.474 0 002.906 4.149c5 5 12.748 5.594 18.4 1.778a310.249 310.249 0 0112.466 15.546c-19.431 23.033-46.444 46.923-80.307 71.116a627.637 627.637 0 01-22.526-16.838z" fill="#5c2d77"/></g></svg>