<svg id="Layer_1" xmlns="http://www.w3.org/2000/svg" viewBox="0 0 276.7 45"><style>.st0{fill:#d10}.st1{fill:#ff7d00}.st2{fill:#f16850}.st3{fill:#fd694f}.st4{fill:#ff3413}.st5{fill:#dc1d23}.st6{fill:#ff9281}.st7{fill:#ff8b79}.st8{fill:#ef5240}.st9{fill:#ff482c}.st10{fill:#ec2101}.st11{fill:#d21c22}.st12{fill:#c90901}.st13{fill:#b6171e}.st14{fill:#b4151b}.st15{fill:#e63320}.st16{fill:#ff4527}.st17{fill:#fd684d}.st18{fill:#fd745c}</style><path class="st0" d="M77.1 8.4h-4l-4.9 21.3-4.9-21.1-.1-.2h-4.4l-4.9 21.1-4.8-21.1H45l6.4 27.4.1.2h4.6L61 15l4.8 20.8.1.2h4.6L77 8.7zm8.8 6c-3 0-5.3.9-6.8 2.8-1.6 1.8-2.4 4.7-2.4 8.4 0 3.6.8 6.4 2.4 8.3 1.6 1.9 3.9 2.8 6.9 2.8 3 0 5.3-1 6.8-2.8 1.5-1.9 2.3-4.6 2.3-8.2 0-3.6-.8-6.4-2.3-8.3-1.6-2.1-3.9-3-6.9-3zm4 17c-.9 1.2-2.2 1.8-3.9 1.8-1.9 0-3.2-.6-4-1.8-.8-1.2-1.3-3.2-1.3-5.8 0-2.7.4-4.7 1.3-6 .9-1.2 2.2-1.8 4-1.8 1.8 0 3 .6 3.9 1.8.9 1.2 1.3 3.2 1.3 6 0 2.6-.5 4.5-1.3 5.8zm9-25.1h3.8V36h-3.8zm20.1.2c-1.2-.5-2.5-.8-4-.8-2.4 0-4.1.6-5.1 1.8-1 1.2-1.4 3.1-1.4 5.6v1.8h-3v3.3h3V36h3.8V18.2h4.5v-3.3h-4.5v-1.8c0-1.6.2-2.7.6-3.3.4-.5 1.1-.8 2.2-.8.4 0 .9.1 1.5.2s1 .3 1.4.5l.2.1 1.1-3.4-.3.1zm10.4 8.1c-1.3 0-2.5.4-3.6 1.2-.9.6-1.8 1.4-2.6 2.2v-3h-3.8v21h3.8V21.6c1.2-1.2 2.2-2 3.1-2.4.9-.4 1.8-.7 2.8-.7.6 0 1.1.1 1.5.2l.3.1.8-3.7-.2-.1c-.5-.2-1.3-.4-2.1-.4zm17.7 1.4c-1.3-1.1-3.5-1.7-6.4-1.7-1.9 0-3.5.3-4.8.9-1.3.6-2.3 1.5-2.9 2.7l-.1.2L136 20l.1-.2c.3-.5.8-1 1.5-1.5s1.7-.7 3.1-.7c1.5 0 2.7.3 3.5.8.8.5 1.2 1.6 1.2 3v.8l-4.8.4c-2 .2-3.6.6-4.6 1.2-1.1.6-1.9 1.3-2.5 2.3-.6 1-.9 2.2-.9 3.6 0 1.9.6 3.5 1.6 4.8 1.1 1.2 2.7 1.9 4.7 1.9 1.4 0 2.6-.3 3.7-.9.9-.5 1.9-1.2 2.8-2V36h3.8V21.8c-.1-2.7-.8-4.7-2.1-5.8zm-7.2 17.1c-1.2 0-2-.3-2.6-.7-.6-.5-.8-1.3-.8-2.5s.4-2.1 1.3-2.8c.9-.6 2.4-1.1 4.6-1.3l3-.3v4.7c-.4.3-.8.6-1.2 1-.4.3-.9.7-1.4.9-.5.3-.9.5-1.4.7-.6.2-1 .3-1.5.3zm40-15.5c-.4-1-.9-1.9-1.7-2.4-.8-.6-1.8-.8-3.1-.8-1.4 0-2.7.4-3.8 1.2-1 .7-2 1.6-3 2.6-.3-1.2-.9-2.2-1.6-2.8-.9-.7-2-1-3.4-1-1.3 0-2.5.4-3.6 1.1-.9.6-1.8 1.4-2.6 2.2V15h-3.8v21h3.8V21.3c1-1 2-1.8 3-2.4.9-.6 1.7-.8 2.4-.8s1.3.1 1.6.4c.3.2.6.7.7 1.3.2.7.2 2 .2 3.9V36h3.8V21.3c1.3-1.2 2.4-2.1 3.2-2.5.8-.5 1.5-.7 2.2-.7.7 0 1.3.1 1.6.3.3.2.6.6.7 1.2.2.6.2 2 .2 4V36h3.8V22c0-1.9-.2-3.4-.6-4.4z"/><path class="st1" d="M197.3 8.4h-5L182.9 36h4.2l2.3-7.1H200l2.3 7.1h4.3l-9.3-27.4v-.2zm1.4 16.8h-8.1l4.1-12.3 4 12.3zm10.4-18.9h3.8V36h-3.8zm17.9 8.1c-1.3 0-2.5.3-3.6.8-.9.4-1.7 1-2.4 1.6V15h-3.8v28.5h3.8v-8.9c1.7 1.4 3.5 2 5.5 2 2.6 0 4.7-1 6.2-3.1 1.5-2 2.2-4.8 2.2-8.2 0-3.5-.7-6.2-2.1-8.1-1.3-1.9-3.3-2.8-5.8-2.8zm4 11c0 2.7-.5 4.6-1.4 5.9-.9 1.2-2.1 1.8-3.5 1.8-1.7 0-3.4-.7-5-2.1V20.3c.7-.6 1.5-1.2 2.4-1.7.9-.5 1.9-.8 2.9-.8 3.1 0 4.6 2.5 4.6 7.6zm17.8-11c-1.3 0-2.6.4-3.9 1.1-1.1.6-2.1 1.4-3 2.2V6.3h-3.8V36h3.8V21.3c1-.9 2.1-1.7 3.2-2.3 1.1-.6 2.1-1 2.9-1 .8 0 1.4.1 1.8.4.4.3.7.7.9 1.3.2.6.3 1.9.3 3.8V36h3.8V22c0-2.7-.5-4.7-1.4-5.9-1-1.1-2.5-1.7-4.6-1.7zm23.9 1.6c-1.3-1.1-3.5-1.7-6.4-1.7-1.9 0-3.5.3-4.8.9-1.3.6-2.3 1.5-2.9 2.7l-.1.2 3.1 1.9.1-.2c.3-.5.8-1 1.5-1.5s1.7-.7 3.1-.7c1.5 0 2.7.3 3.5.8.8.5 1.2 1.6 1.2 3v.8l-4.8.4c-2 .2-3.6.6-4.6 1.2-1.1.6-1.9 1.3-2.5 2.3-.6 1-.9 2.2-.9 3.6 0 1.9.6 3.5 1.6 4.8 1.1 1.2 2.7 1.9 4.7 1.9 1.4 0 2.6-.3 3.7-.9.9-.5 1.9-1.2 2.8-2V36h3.8V21.8c-.2-2.7-.8-4.7-2.1-5.8zm-7.3 17.1c-1.2 0-2-.3-2.6-.7-.6-.5-.8-1.3-.8-2.5s.4-2.1 1.3-2.8c.9-.6 2.4-1.1 4.6-1.3l3-.3v4.7c-.4.3-.8.6-1.2 1-.4.3-.9.7-1.4.9-.5.3-.9.5-1.4.7-.5.2-1 .3-1.5.3z"/><path class="st2" d="M40.4 28.9L32 30.7l.9 8.3-7.9-3.4-4.3 7.3-4.3-7.3L8.5 39l.9-8.3L1 28.9l5.7-6.3L1 16.4l8.4-1.8-.9-8.3 7.9 3.3 4.3-7.2L25 9.6l7.9-3.3-.9 8.3 8.4 1.8-5.7 6.2z"/><path class="st3" d="M20.7 15l-4.3-5.4-7.9-3.3 4.7 6.1z"/><path class="st4" d="M9.4 14.6L1 16.4l5.7 6.2 6.7-2.4z"/><path class="st5" d="M13.2 12.4L8.5 6.3l.9 8.3 4 5.6z"/><path class="st6" d="M25 9.6l-4.3-7.2-4.3 7.2 4.3 5.4z"/><path class="st7" d="M34.7 22.6l5.7-6.2-8.4-1.8-4 5.6z"/><path class="st3" d="M28 20.2l4-5.6.9-8.3-4.7 6.1z"/><path class="st8" d="M28.2 12.4l4.7-6.1L25 9.6 20.7 15z"/><path class="st9" d="M32.8 26.4l7.6 2.5-5.7-6.3-6.7-2.4z"/><path class="st10" d="M13.4 20.2l-6.7 2.4L1 28.9l7.6-2.5z"/><path class="st11" d="M20.7 35v7.9l4.3-7.3.2-7z"/><path class="st12" d="M32.8 26.4l-7.6 2.2 6.8 2.1 8.4-1.8z"/><path class="st10" d="M25 35.6l7.9 3.4-.9-8.3-6.8-2.1z"/><path class="st13" d="M8.6 26.4L1 28.9l8.4 1.8 6.8-2.1z"/><path class="st14" d="M16.2 28.6l.2 7 4.3 7.3V35z"/><path class="st11" d="M9.4 30.7L8.5 39l7.9-3.4-.2-7z"/><path class="st15" d="M28 20.2l.2-7.8-7.5 2.6v7.6z"/><path class="st16" d="M20.7 15l-7.5-2.6.2 7.8 7.3 2.4z"/><path class="st6" d="M16.2 28.6l4.5 6.4 4.5-6.4-4.5-6z"/><path class="st17" d="M20.7 22.6l4.5 6 7.6-2.2-4.8-6.2z"/><path class="st18" d="M13.4 20.2l-4.8 6.2 7.6 2.2 4.5-6z"/></svg>